<mxfile host="app.diagrams.net" modified="2023-11-17T04:08:42.246Z" agent="Mozilla/5.0 (Windows NT 10.0; Win64; x64) AppleWebKit/537.36 (KHTML, like Gecko) Chrome/119.0.0.0 Safari/537.36" etag="4CZOeYSWfKIYsbpHqeeg" version="22.1.2" type="device">
  <diagram name="Page-1" id="n2UFKmqRW0jnYmZ2B-CK">
    <mxGraphModel dx="995" dy="1201" grid="1" gridSize="10" guides="1" tooltips="1" connect="1" arrows="1" fold="1" page="1" pageScale="1" pageWidth="850" pageHeight="1100" math="0" shadow="0">
      <root>
        <mxCell id="0" />
        <mxCell id="1" parent="0" />
        <mxCell id="yQJW8gQfMzze2Z9aXrhy-3" value="E-Commerce Application: Sequence Diagram" style="shape=umlFrame;whiteSpace=wrap;html=1;pointerEvents=0;recursiveResize=0;container=1;collapsible=0;width=260;rounded=1;labelBackgroundColor=none;height=50;fillColor=#b0e3e6;strokeColor=#0e8088;" parent="1" vertex="1">
          <mxGeometry x="10" y="10" width="870" height="1760" as="geometry" />
        </mxCell>
        <mxCell id="yQJW8gQfMzze2Z9aXrhy-4" value="" style="shape=umlLifeline;perimeter=lifelinePerimeter;whiteSpace=wrap;html=1;container=1;dropTarget=0;collapsible=0;recursiveResize=0;outlineConnect=0;portConstraint=eastwest;newEdgeStyle={&quot;curved&quot;:0,&quot;rounded&quot;:0};participant=umlActor;fillColor=#A8DADC;strokeColor=#457B9D;rounded=1;labelBackgroundColor=none;fontColor=#1D3557;" parent="yQJW8gQfMzze2Z9aXrhy-3" vertex="1">
          <mxGeometry x="60" y="125" width="20" height="1625" as="geometry" />
        </mxCell>
        <mxCell id="IdrIjM82akzUMScYfLIz-34" value="" style="html=1;points=[[0,0,0,0,5],[0,1,0,0,-5],[1,0,0,0,5],[1,1,0,0,-5]];perimeter=orthogonalPerimeter;outlineConnect=0;targetShapes=umlLifeline;portConstraint=eastwest;newEdgeStyle={&quot;curved&quot;:0,&quot;rounded&quot;:0};strokeColor=#457B9D;fontColor=#1D3557;fillColor=#A8DADC;" vertex="1" parent="yQJW8gQfMzze2Z9aXrhy-4">
          <mxGeometry x="5" y="475" width="10" height="35" as="geometry" />
        </mxCell>
        <mxCell id="yQJW8gQfMzze2Z9aXrhy-5" value="" style="shape=umlLifeline;perimeter=lifelinePerimeter;whiteSpace=wrap;html=1;container=1;dropTarget=0;collapsible=0;recursiveResize=0;outlineConnect=0;portConstraint=eastwest;newEdgeStyle={&quot;curved&quot;:0,&quot;rounded&quot;:0};participant=umlControl;fillColor=#A8DADC;strokeColor=#457B9D;rounded=1;labelBackgroundColor=none;fontColor=#1D3557;" parent="yQJW8gQfMzze2Z9aXrhy-3" vertex="1">
          <mxGeometry x="220" y="120" width="40" height="1630" as="geometry" />
        </mxCell>
        <mxCell id="IdrIjM82akzUMScYfLIz-12" value="" style="html=1;points=[[0,0,0,0,5],[0,1,0,0,-5],[1,0,0,0,5],[1,1,0,0,-5]];perimeter=orthogonalPerimeter;outlineConnect=0;targetShapes=umlLifeline;portConstraint=eastwest;newEdgeStyle={&quot;curved&quot;:0,&quot;rounded&quot;:0};strokeColor=#457B9D;fontColor=#1D3557;fillColor=#A8DADC;" vertex="1" parent="yQJW8gQfMzze2Z9aXrhy-5">
          <mxGeometry x="15" y="90" width="10" height="1520" as="geometry" />
        </mxCell>
        <mxCell id="IdrIjM82akzUMScYfLIz-14" value="displayLogin()" style="html=1;align=left;spacingLeft=2;endArrow=block;rounded=0;edgeStyle=orthogonalEdgeStyle;curved=0;rounded=0;strokeColor=#457B9D;fontColor=#1D3557;fillColor=#A8DADC;exitX=1;exitY=0;exitDx=0;exitDy=5;exitPerimeter=0;" edge="1" target="IdrIjM82akzUMScYfLIz-13" parent="yQJW8gQfMzze2Z9aXrhy-5" source="IdrIjM82akzUMScYfLIz-12">
          <mxGeometry relative="1" as="geometry">
            <mxPoint x="30" y="80" as="sourcePoint" />
            <Array as="points">
              <mxPoint x="30" y="95" />
              <mxPoint x="30" y="90" />
              <mxPoint x="60" y="90" />
              <mxPoint x="60" y="110" />
            </Array>
          </mxGeometry>
        </mxCell>
        <mxCell id="IdrIjM82akzUMScYfLIz-13" value="" style="html=1;points=[[0,0,0,0,5],[0,1,0,0,-5],[1,0,0,0,5],[1,1,0,0,-5]];perimeter=orthogonalPerimeter;outlineConnect=0;targetShapes=umlLifeline;portConstraint=eastwest;newEdgeStyle={&quot;curved&quot;:0,&quot;rounded&quot;:0};strokeColor=#457B9D;fontColor=#1D3557;fillColor=#A8DADC;" vertex="1" parent="yQJW8gQfMzze2Z9aXrhy-5">
          <mxGeometry x="22" y="99" width="8" height="21" as="geometry" />
        </mxCell>
        <mxCell id="IdrIjM82akzUMScYfLIz-26" value="" style="html=1;points=[[0,0,0,0,5],[0,1,0,0,-5],[1,0,0,0,5],[1,1,0,0,-5]];perimeter=orthogonalPerimeter;outlineConnect=0;targetShapes=umlLifeline;portConstraint=eastwest;newEdgeStyle={&quot;curved&quot;:0,&quot;rounded&quot;:0};strokeColor=#457B9D;fontColor=#1D3557;fillColor=#A8DADC;" vertex="1" parent="yQJW8gQfMzze2Z9aXrhy-5">
          <mxGeometry x="19" y="323" width="13" height="30" as="geometry" />
        </mxCell>
        <mxCell id="IdrIjM82akzUMScYfLIz-27" value="displayError()" style="html=1;align=left;spacingLeft=2;endArrow=block;rounded=0;edgeStyle=orthogonalEdgeStyle;curved=0;rounded=0;strokeColor=#457B9D;fontColor=#1D3557;fillColor=#A8DADC;exitX=1;exitY=0;exitDx=0;exitDy=5;exitPerimeter=0;" edge="1" target="IdrIjM82akzUMScYfLIz-26" parent="yQJW8gQfMzze2Z9aXrhy-5" source="IdrIjM82akzUMScYfLIz-26">
          <mxGeometry x="-0.0633" y="6" relative="1" as="geometry">
            <mxPoint x="24" y="303" as="sourcePoint" />
            <Array as="points">
              <mxPoint x="32" y="323" />
              <mxPoint x="54" y="323" />
              <mxPoint x="54" y="353" />
            </Array>
            <mxPoint as="offset" />
          </mxGeometry>
        </mxCell>
        <mxCell id="yQJW8gQfMzze2Z9aXrhy-6" value="" style="shape=umlLifeline;perimeter=lifelinePerimeter;whiteSpace=wrap;html=1;container=1;dropTarget=0;collapsible=0;recursiveResize=0;outlineConnect=0;portConstraint=eastwest;newEdgeStyle={&quot;curved&quot;:0,&quot;rounded&quot;:0};participant=umlBoundary;fillColor=#A8DADC;strokeColor=#457B9D;rounded=1;labelBackgroundColor=none;fontColor=#1D3557;" parent="yQJW8gQfMzze2Z9aXrhy-3" vertex="1">
          <mxGeometry x="400" y="120" width="50" height="1630" as="geometry" />
        </mxCell>
        <mxCell id="IdrIjM82akzUMScYfLIz-19" value="" style="html=1;points=[[0,0,0,0,5],[0,1,0,0,-5],[1,0,0,0,5],[1,1,0,0,-5]];perimeter=orthogonalPerimeter;outlineConnect=0;targetShapes=umlLifeline;portConstraint=eastwest;newEdgeStyle={&quot;curved&quot;:0,&quot;rounded&quot;:0};strokeColor=#457B9D;fontColor=#1D3557;fillColor=#A8DADC;" vertex="1" parent="yQJW8gQfMzze2Z9aXrhy-6">
          <mxGeometry x="20" y="210" width="10" height="42" as="geometry" />
        </mxCell>
        <mxCell id="IdrIjM82akzUMScYfLIz-86" value="" style="html=1;points=[[0,0,0,0,5],[0,1,0,0,-5],[1,0,0,0,5],[1,1,0,0,-5]];perimeter=orthogonalPerimeter;outlineConnect=0;targetShapes=umlLifeline;portConstraint=eastwest;newEdgeStyle={&quot;curved&quot;:0,&quot;rounded&quot;:0};strokeColor=#457B9D;fontColor=#1D3557;fillColor=#A8DADC;" vertex="1" parent="yQJW8gQfMzze2Z9aXrhy-6">
          <mxGeometry x="20" y="1200" width="10" height="40" as="geometry" />
        </mxCell>
        <mxCell id="IdrIjM82akzUMScYfLIz-96" value="" style="html=1;points=[[0,0,0,0,5],[0,1,0,0,-5],[1,0,0,0,5],[1,1,0,0,-5]];perimeter=orthogonalPerimeter;outlineConnect=0;targetShapes=umlLifeline;portConstraint=eastwest;newEdgeStyle={&quot;curved&quot;:0,&quot;rounded&quot;:0};strokeColor=#457B9D;fontColor=#1D3557;fillColor=#A8DADC;" vertex="1" parent="yQJW8gQfMzze2Z9aXrhy-6">
          <mxGeometry x="20" y="1270" width="10" height="40" as="geometry" />
        </mxCell>
        <mxCell id="yQJW8gQfMzze2Z9aXrhy-7" value="" style="shape=umlLifeline;perimeter=lifelinePerimeter;whiteSpace=wrap;html=1;container=1;dropTarget=0;collapsible=0;recursiveResize=0;outlineConnect=0;portConstraint=eastwest;newEdgeStyle={&quot;curved&quot;:0,&quot;rounded&quot;:0};participant=umlEntity;fillColor=#A8DADC;strokeColor=#457B9D;rounded=1;labelBackgroundColor=none;fontColor=#1D3557;" parent="yQJW8gQfMzze2Z9aXrhy-3" vertex="1">
          <mxGeometry x="590" y="120" width="40" height="1630" as="geometry" />
        </mxCell>
        <mxCell id="IdrIjM82akzUMScYfLIz-23" value="" style="html=1;points=[[0,0,0,0,5],[0,1,0,0,-5],[1,0,0,0,5],[1,1,0,0,-5]];perimeter=orthogonalPerimeter;outlineConnect=0;targetShapes=umlLifeline;portConstraint=eastwest;newEdgeStyle={&quot;curved&quot;:0,&quot;rounded&quot;:0};strokeColor=#457B9D;fontColor=#1D3557;fillColor=#A8DADC;" vertex="1" parent="yQJW8gQfMzze2Z9aXrhy-7">
          <mxGeometry x="20" y="280" width="10" height="30" as="geometry" />
        </mxCell>
        <mxCell id="yQJW8gQfMzze2Z9aXrhy-8" value="" style="shape=umlLifeline;perimeter=lifelinePerimeter;whiteSpace=wrap;html=1;container=1;dropTarget=0;collapsible=0;recursiveResize=0;outlineConnect=0;portConstraint=eastwest;newEdgeStyle={&quot;curved&quot;:0,&quot;rounded&quot;:0};participant=umlActor;fillColor=#A8DADC;strokeColor=#457B9D;rounded=1;labelBackgroundColor=none;fontColor=#1D3557;" parent="yQJW8gQfMzze2Z9aXrhy-3" vertex="1">
          <mxGeometry x="770" y="120" width="20" height="1630" as="geometry" />
        </mxCell>
        <mxCell id="yQJW8gQfMzze2Z9aXrhy-9" value="User" style="text;html=1;align=center;verticalAlign=middle;resizable=0;points=[];autosize=1;strokeColor=#457B9D;fillColor=#A8DADC;rounded=1;labelBackgroundColor=none;fontColor=#1D3557;" parent="yQJW8gQfMzze2Z9aXrhy-3" vertex="1">
          <mxGeometry x="45" y="90" width="50" height="30" as="geometry" />
        </mxCell>
        <mxCell id="yQJW8gQfMzze2Z9aXrhy-10" value="E-Commerce App UI" style="text;html=1;align=center;verticalAlign=middle;resizable=0;points=[];autosize=1;strokeColor=#457B9D;fillColor=#A8DADC;rounded=1;labelBackgroundColor=none;fontColor=#1D3557;" parent="yQJW8gQfMzze2Z9aXrhy-3" vertex="1">
          <mxGeometry x="175" y="88" width="130" height="30" as="geometry" />
        </mxCell>
        <mxCell id="yQJW8gQfMzze2Z9aXrhy-11" value="Data store" style="text;html=1;align=center;verticalAlign=middle;resizable=0;points=[];autosize=1;strokeColor=#457B9D;fillColor=#A8DADC;rounded=1;labelBackgroundColor=none;fontColor=#1D3557;" parent="yQJW8gQfMzze2Z9aXrhy-3" vertex="1">
          <mxGeometry x="385" y="88" width="80" height="30" as="geometry" />
        </mxCell>
        <mxCell id="yQJW8gQfMzze2Z9aXrhy-12" value="Authentication Service" style="text;html=1;align=center;verticalAlign=middle;resizable=0;points=[];autosize=1;strokeColor=#457B9D;fillColor=#A8DADC;rounded=1;labelBackgroundColor=none;fontColor=#1D3557;" parent="yQJW8gQfMzze2Z9aXrhy-3" vertex="1">
          <mxGeometry x="540" y="88" width="140" height="30" as="geometry" />
        </mxCell>
        <mxCell id="yQJW8gQfMzze2Z9aXrhy-13" value="Seller" style="text;html=1;align=center;verticalAlign=middle;resizable=0;points=[];autosize=1;strokeColor=#457B9D;fillColor=#A8DADC;rounded=1;labelBackgroundColor=none;fontColor=#1D3557;" parent="yQJW8gQfMzze2Z9aXrhy-3" vertex="1">
          <mxGeometry x="755" y="88" width="50" height="30" as="geometry" />
        </mxCell>
        <mxCell id="IdrIjM82akzUMScYfLIz-1" value="start app" style="html=1;verticalAlign=bottom;startArrow=oval;startFill=1;endArrow=block;startSize=8;curved=0;rounded=1;fillColor=#A8DADC;strokeColor=#457B9D;labelBackgroundColor=none;fontColor=default;" edge="1" parent="yQJW8gQfMzze2Z9aXrhy-3">
          <mxGeometry width="60" relative="1" as="geometry">
            <mxPoint x="10" y="180" as="sourcePoint" />
            <mxPoint x="70" y="180" as="targetPoint" />
          </mxGeometry>
        </mxCell>
        <mxCell id="IdrIjM82akzUMScYfLIz-2" value="login()" style="html=1;verticalAlign=bottom;labelBackgroundColor=none;endArrow=open;endFill=0;rounded=1;strokeColor=#457B9D;fontColor=default;" edge="1" parent="yQJW8gQfMzze2Z9aXrhy-3" source="yQJW8gQfMzze2Z9aXrhy-4">
          <mxGeometry width="160" relative="1" as="geometry">
            <mxPoint x="69.5" y="210" as="sourcePoint" />
            <mxPoint x="239.5" y="210" as="targetPoint" />
          </mxGeometry>
        </mxCell>
        <mxCell id="IdrIjM82akzUMScYfLIz-20" value="inDatabase(userID)" style="html=1;verticalAlign=bottom;endArrow=block;curved=0;rounded=0;entryX=0;entryY=0;entryDx=0;entryDy=5;strokeColor=#457B9D;fontColor=#1D3557;fillColor=#A8DADC;" edge="1" target="IdrIjM82akzUMScYfLIz-19" parent="yQJW8gQfMzze2Z9aXrhy-3" source="IdrIjM82akzUMScYfLIz-12">
          <mxGeometry relative="1" as="geometry">
            <mxPoint x="350" y="327" as="sourcePoint" />
          </mxGeometry>
        </mxCell>
        <mxCell id="IdrIjM82akzUMScYfLIz-21" value="lUserExists" style="html=1;verticalAlign=bottom;endArrow=open;dashed=1;endSize=8;curved=0;rounded=0;exitX=0;exitY=1;exitDx=0;exitDy=-5;strokeColor=#457B9D;fontColor=#1D3557;fillColor=#A8DADC;" edge="1" source="IdrIjM82akzUMScYfLIz-19" parent="yQJW8gQfMzze2Z9aXrhy-3" target="IdrIjM82akzUMScYfLIz-12">
          <mxGeometry relative="1" as="geometry">
            <mxPoint x="350" y="397" as="targetPoint" />
          </mxGeometry>
        </mxCell>
        <mxCell id="IdrIjM82akzUMScYfLIz-24" value="validateCredentials(Username, password)" style="html=1;verticalAlign=bottom;endArrow=block;curved=0;rounded=0;entryX=0;entryY=0;entryDx=0;entryDy=5;strokeColor=#457B9D;fontColor=#1D3557;fillColor=#A8DADC;" edge="1" target="IdrIjM82akzUMScYfLIz-23" parent="yQJW8gQfMzze2Z9aXrhy-3" source="IdrIjM82akzUMScYfLIz-12">
          <mxGeometry relative="1" as="geometry">
            <mxPoint x="540" y="365" as="sourcePoint" />
          </mxGeometry>
        </mxCell>
        <mxCell id="IdrIjM82akzUMScYfLIz-25" value="Valid" style="html=1;verticalAlign=bottom;endArrow=open;dashed=1;endSize=8;curved=0;rounded=0;exitX=0;exitY=1;exitDx=0;exitDy=-5;strokeColor=#457B9D;fontColor=#1D3557;fillColor=#A8DADC;" edge="1" source="IdrIjM82akzUMScYfLIz-23" parent="yQJW8gQfMzze2Z9aXrhy-3" target="IdrIjM82akzUMScYfLIz-12">
          <mxGeometry relative="1" as="geometry">
            <mxPoint x="540" y="435" as="targetPoint" />
          </mxGeometry>
        </mxCell>
        <mxCell id="IdrIjM82akzUMScYfLIz-32" value="opt" style="shape=umlFrame;whiteSpace=wrap;html=1;pointerEvents=0;strokeColor=#457B9D;fontColor=#1D3557;fillColor=#A8DADC;" vertex="1" parent="yQJW8gQfMzze2Z9aXrhy-3">
          <mxGeometry x="45" y="550" width="585" height="180" as="geometry" />
        </mxCell>
        <mxCell id="IdrIjM82akzUMScYfLIz-33" value="NewUser == true" style="text;html=1;align=center;verticalAlign=middle;resizable=0;points=[];autosize=1;strokeColor=none;fillColor=none;fontColor=#1D3557;" vertex="1" parent="yQJW8gQfMzze2Z9aXrhy-3">
          <mxGeometry x="110" y="550" width="110" height="30" as="geometry" />
        </mxCell>
        <mxCell id="IdrIjM82akzUMScYfLIz-35" value="registerUser()" style="html=1;verticalAlign=bottom;endArrow=block;curved=0;rounded=0;entryX=1;entryY=0;entryDx=0;entryDy=5;strokeColor=#457B9D;fontColor=#1D3557;fillColor=#A8DADC;" edge="1" target="IdrIjM82akzUMScYfLIz-34" parent="yQJW8gQfMzze2Z9aXrhy-3" source="IdrIjM82akzUMScYfLIz-12">
          <mxGeometry relative="1" as="geometry">
            <mxPoint x="145" y="605" as="sourcePoint" />
          </mxGeometry>
        </mxCell>
        <mxCell id="IdrIjM82akzUMScYfLIz-36" value="userID, username, password" style="html=1;verticalAlign=bottom;endArrow=open;dashed=1;endSize=8;curved=0;rounded=0;exitX=1;exitY=1;exitDx=0;exitDy=-5;strokeColor=#457B9D;fontColor=#1D3557;fillColor=#A8DADC;" edge="1" source="IdrIjM82akzUMScYfLIz-34" parent="yQJW8gQfMzze2Z9aXrhy-3" target="IdrIjM82akzUMScYfLIz-12">
          <mxGeometry relative="1" as="geometry">
            <mxPoint x="145" y="675" as="targetPoint" />
          </mxGeometry>
        </mxCell>
        <mxCell id="IdrIjM82akzUMScYfLIz-39" value="" style="html=1;verticalAlign=bottom;endArrow=open;dashed=1;endSize=8;curved=0;rounded=0;exitX=0;exitY=1;exitDx=0;exitDy=-5;strokeColor=#457B9D;fontColor=#1D3557;fillColor=#A8DADC;" edge="1" source="IdrIjM82akzUMScYfLIz-37" parent="yQJW8gQfMzze2Z9aXrhy-3" target="IdrIjM82akzUMScYfLIz-12">
          <mxGeometry relative="1" as="geometry">
            <mxPoint x="540" y="715" as="targetPoint" />
          </mxGeometry>
        </mxCell>
        <mxCell id="IdrIjM82akzUMScYfLIz-38" value="newUser(userID, username, password)" style="html=1;verticalAlign=bottom;endArrow=block;curved=0;rounded=0;entryX=0;entryY=0;entryDx=0;entryDy=5;strokeColor=#457B9D;fontColor=#1D3557;fillColor=#A8DADC;" edge="1" target="IdrIjM82akzUMScYfLIz-37" parent="yQJW8gQfMzze2Z9aXrhy-3" source="IdrIjM82akzUMScYfLIz-12">
          <mxGeometry relative="1" as="geometry">
            <mxPoint x="540" y="645" as="sourcePoint" />
          </mxGeometry>
        </mxCell>
        <mxCell id="IdrIjM82akzUMScYfLIz-40" value="" style="html=1;points=[[0,0,0,0,5],[0,1,0,0,-5],[1,0,0,0,5],[1,1,0,0,-5]];perimeter=orthogonalPerimeter;outlineConnect=0;targetShapes=umlLifeline;portConstraint=eastwest;newEdgeStyle={&quot;curved&quot;:0,&quot;rounded&quot;:0};strokeColor=#457B9D;fontColor=#1D3557;fillColor=#A8DADC;" vertex="1" parent="yQJW8gQfMzze2Z9aXrhy-3">
          <mxGeometry x="420" y="690" width="10" height="30" as="geometry" />
        </mxCell>
        <mxCell id="IdrIjM82akzUMScYfLIz-41" value="newUser(userID)" style="html=1;verticalAlign=bottom;endArrow=block;curved=0;rounded=0;entryX=0;entryY=0;entryDx=0;entryDy=5;strokeColor=#457B9D;fontColor=#1D3557;fillColor=#A8DADC;" edge="1" target="IdrIjM82akzUMScYfLIz-40" parent="yQJW8gQfMzze2Z9aXrhy-3" source="IdrIjM82akzUMScYfLIz-12">
          <mxGeometry relative="1" as="geometry">
            <mxPoint x="305" y="815" as="sourcePoint" />
          </mxGeometry>
        </mxCell>
        <mxCell id="IdrIjM82akzUMScYfLIz-42" value="" style="html=1;verticalAlign=bottom;endArrow=open;dashed=1;endSize=8;curved=0;rounded=0;exitX=0;exitY=1;exitDx=0;exitDy=-5;strokeColor=#457B9D;fontColor=#1D3557;fillColor=#A8DADC;" edge="1" source="IdrIjM82akzUMScYfLIz-40" parent="yQJW8gQfMzze2Z9aXrhy-3" target="IdrIjM82akzUMScYfLIz-12">
          <mxGeometry relative="1" as="geometry">
            <mxPoint x="305" y="885" as="targetPoint" />
          </mxGeometry>
        </mxCell>
        <mxCell id="IdrIjM82akzUMScYfLIz-37" value="" style="html=1;points=[[0,0,0,0,5],[0,1,0,0,-5],[1,0,0,0,5],[1,1,0,0,-5]];perimeter=orthogonalPerimeter;outlineConnect=0;targetShapes=umlLifeline;portConstraint=eastwest;newEdgeStyle={&quot;curved&quot;:0,&quot;rounded&quot;:0};strokeColor=#457B9D;fontColor=#1D3557;fillColor=#A8DADC;" vertex="1" parent="yQJW8gQfMzze2Z9aXrhy-3">
          <mxGeometry x="605" y="640" width="10" height="30" as="geometry" />
        </mxCell>
        <mxCell id="IdrIjM82akzUMScYfLIz-43" value="opt" style="shape=umlFrame;whiteSpace=wrap;html=1;pointerEvents=0;strokeColor=#457B9D;fontColor=#1D3557;fillColor=#A8DADC;width=65;height=30;" vertex="1" parent="yQJW8gQfMzze2Z9aXrhy-3">
          <mxGeometry x="45" y="750" width="415" height="460" as="geometry" />
        </mxCell>
        <mxCell id="IdrIjM82akzUMScYfLIz-48" value="viewCart(cartID, cartList, totalCost)" style="html=1;verticalAlign=bottom;endArrow=block;curved=0;rounded=0;entryX=0;entryY=0;entryDx=0;entryDy=5;strokeColor=#457B9D;fontColor=#1D3557;fillColor=#A8DADC;" edge="1" target="IdrIjM82akzUMScYfLIz-47" parent="yQJW8gQfMzze2Z9aXrhy-3">
          <mxGeometry x="0.4286" y="1" relative="1" as="geometry">
            <mxPoint x="245" y="1131" as="sourcePoint" />
            <mxPoint as="offset" />
          </mxGeometry>
        </mxCell>
        <mxCell id="IdrIjM82akzUMScYfLIz-49" value="return" style="html=1;verticalAlign=bottom;endArrow=open;dashed=1;endSize=8;curved=0;rounded=0;exitX=0;exitY=1;exitDx=0;exitDy=-5;strokeColor=#457B9D;fontColor=#1D3557;fillColor=#A8DADC;" edge="1" source="IdrIjM82akzUMScYfLIz-47" parent="yQJW8gQfMzze2Z9aXrhy-3">
          <mxGeometry relative="1" as="geometry">
            <mxPoint x="245" y="1161" as="targetPoint" />
          </mxGeometry>
        </mxCell>
        <mxCell id="IdrIjM82akzUMScYfLIz-50" value="BrowseItems == true" style="text;html=1;align=center;verticalAlign=middle;resizable=0;points=[];autosize=1;strokeColor=none;fillColor=none;fontColor=#1D3557;" vertex="1" parent="yQJW8gQfMzze2Z9aXrhy-3">
          <mxGeometry x="110" y="750" width="130" height="30" as="geometry" />
        </mxCell>
        <mxCell id="IdrIjM82akzUMScYfLIz-46" value="newCart == true" style="text;html=1;align=center;verticalAlign=middle;resizable=0;points=[];autosize=1;strokeColor=none;fillColor=none;fontColor=#1D3557;" vertex="1" parent="yQJW8gQfMzze2Z9aXrhy-3">
          <mxGeometry x="260" y="896" width="110" height="30" as="geometry" />
        </mxCell>
        <mxCell id="IdrIjM82akzUMScYfLIz-47" value="" style="html=1;points=[[0,0,0,0,5],[0,1,0,0,-5],[1,0,0,0,5],[1,1,0,0,-5]];perimeter=orthogonalPerimeter;outlineConnect=0;targetShapes=umlLifeline;portConstraint=eastwest;newEdgeStyle={&quot;curved&quot;:0,&quot;rounded&quot;:0};strokeColor=#457B9D;fontColor=#1D3557;fillColor=#A8DADC;" vertex="1" parent="yQJW8gQfMzze2Z9aXrhy-3">
          <mxGeometry x="420" y="1126" width="10" height="40" as="geometry" />
        </mxCell>
        <mxCell id="IdrIjM82akzUMScYfLIz-45" value="opt" style="shape=umlFrame;whiteSpace=wrap;html=1;pointerEvents=0;strokeColor=#457B9D;fontColor=#1D3557;fillColor=#A8DADC;width=60;height=30;" vertex="1" parent="yQJW8gQfMzze2Z9aXrhy-3">
          <mxGeometry x="210" y="898" width="240" height="302" as="geometry" />
        </mxCell>
        <mxCell id="IdrIjM82akzUMScYfLIz-52" value="" style="html=1;points=[[0,0,0,0,5],[0,1,0,0,-5],[1,0,0,0,5],[1,1,0,0,-5]];perimeter=orthogonalPerimeter;outlineConnect=0;targetShapes=umlLifeline;portConstraint=eastwest;newEdgeStyle={&quot;curved&quot;:0,&quot;rounded&quot;:0};strokeColor=#457B9D;fontColor=#1D3557;fillColor=#A8DADC;" vertex="1" parent="yQJW8gQfMzze2Z9aXrhy-3">
          <mxGeometry x="240" y="943" width="10" height="40" as="geometry" />
        </mxCell>
        <mxCell id="IdrIjM82akzUMScYfLIz-53" value="viewCart(Cart.CartList[])" style="html=1;align=left;spacingLeft=2;endArrow=block;rounded=0;edgeStyle=orthogonalEdgeStyle;curved=0;rounded=0;strokeColor=#457B9D;fontColor=#1D3557;fillColor=#A8DADC;exitX=0;exitY=0;exitDx=0;exitDy=5;exitPerimeter=0;" edge="1" target="IdrIjM82akzUMScYfLIz-52" parent="yQJW8gQfMzze2Z9aXrhy-3" source="IdrIjM82akzUMScYfLIz-52">
          <mxGeometry relative="1" as="geometry">
            <mxPoint x="245" y="933" as="sourcePoint" />
            <Array as="points">
              <mxPoint x="240" y="943" />
              <mxPoint x="275" y="943" />
              <mxPoint x="275" y="983" />
            </Array>
          </mxGeometry>
        </mxCell>
        <mxCell id="IdrIjM82akzUMScYfLIz-67" value="" style="html=1;points=[[0,0,0,0,5],[0,1,0,0,-5],[1,0,0,0,5],[1,1,0,0,-5]];perimeter=orthogonalPerimeter;outlineConnect=0;targetShapes=umlLifeline;portConstraint=eastwest;newEdgeStyle={&quot;curved&quot;:0,&quot;rounded&quot;:0};strokeColor=#457B9D;fontColor=#1D3557;fillColor=#A8DADC;" vertex="1" parent="yQJW8gQfMzze2Z9aXrhy-3">
          <mxGeometry x="420" y="990" width="10" height="40" as="geometry" />
        </mxCell>
        <mxCell id="IdrIjM82akzUMScYfLIz-68" value="addItem(CartList)" style="html=1;verticalAlign=bottom;endArrow=block;curved=0;rounded=0;entryX=0;entryY=0;entryDx=0;entryDy=5;strokeColor=#457B9D;fontColor=#1D3557;fillColor=#A8DADC;" edge="1" target="IdrIjM82akzUMScYfLIz-67" parent="yQJW8gQfMzze2Z9aXrhy-3" source="IdrIjM82akzUMScYfLIz-12">
          <mxGeometry relative="1" as="geometry">
            <mxPoint x="480" y="1175" as="sourcePoint" />
          </mxGeometry>
        </mxCell>
        <mxCell id="IdrIjM82akzUMScYfLIz-69" value="return" style="html=1;verticalAlign=bottom;endArrow=open;dashed=1;endSize=8;curved=0;rounded=0;exitX=0;exitY=1;exitDx=0;exitDy=-5;strokeColor=#457B9D;fontColor=#1D3557;fillColor=#A8DADC;" edge="1" source="IdrIjM82akzUMScYfLIz-67" parent="yQJW8gQfMzze2Z9aXrhy-3" target="IdrIjM82akzUMScYfLIz-12">
          <mxGeometry relative="1" as="geometry">
            <mxPoint x="480" y="1245" as="targetPoint" />
          </mxGeometry>
        </mxCell>
        <mxCell id="IdrIjM82akzUMScYfLIz-70" value="loop" style="shape=umlFrame;whiteSpace=wrap;html=1;pointerEvents=0;strokeColor=#457B9D;fontColor=#1D3557;fillColor=#A8DADC;" vertex="1" parent="yQJW8gQfMzze2Z9aXrhy-3">
          <mxGeometry x="220" y="1096" width="220" height="90" as="geometry" />
        </mxCell>
        <mxCell id="IdrIjM82akzUMScYfLIz-73" value="" style="html=1;points=[[0,0,0,0,5],[0,1,0,0,-5],[1,0,0,0,5],[1,1,0,0,-5]];perimeter=orthogonalPerimeter;outlineConnect=0;targetShapes=umlLifeline;portConstraint=eastwest;newEdgeStyle={&quot;curved&quot;:0,&quot;rounded&quot;:0};strokeColor=#457B9D;fontColor=#1D3557;fillColor=#A8DADC;" vertex="1" parent="yQJW8gQfMzze2Z9aXrhy-3">
          <mxGeometry x="420" y="780" width="10" height="30" as="geometry" />
        </mxCell>
        <mxCell id="IdrIjM82akzUMScYfLIz-74" value="itemList(Items)" style="html=1;verticalAlign=bottom;endArrow=block;curved=0;rounded=0;strokeColor=#457B9D;fontColor=#1D3557;fillColor=#A8DADC;" edge="1" target="IdrIjM82akzUMScYfLIz-73" parent="yQJW8gQfMzze2Z9aXrhy-3" source="IdrIjM82akzUMScYfLIz-12">
          <mxGeometry relative="1" as="geometry">
            <mxPoint x="314.32352941176464" y="780" as="sourcePoint" />
            <Array as="points">
              <mxPoint x="330" y="780" />
            </Array>
          </mxGeometry>
        </mxCell>
        <mxCell id="IdrIjM82akzUMScYfLIz-75" value="items" style="html=1;verticalAlign=bottom;endArrow=open;dashed=1;endSize=8;curved=0;rounded=0;exitX=0;exitY=1;exitDx=0;exitDy=-5;strokeColor=#457B9D;fontColor=#1D3557;fillColor=#A8DADC;" edge="1" source="IdrIjM82akzUMScYfLIz-73" parent="yQJW8gQfMzze2Z9aXrhy-3" target="IdrIjM82akzUMScYfLIz-12">
          <mxGeometry relative="1" as="geometry">
            <mxPoint x="350" y="815" as="targetPoint" />
          </mxGeometry>
        </mxCell>
        <mxCell id="IdrIjM82akzUMScYfLIz-76" value="" style="html=1;points=[[0,0,0,0,5],[0,1,0,0,-5],[1,0,0,0,5],[1,1,0,0,-5]];perimeter=orthogonalPerimeter;outlineConnect=0;targetShapes=umlLifeline;portConstraint=eastwest;newEdgeStyle={&quot;curved&quot;:0,&quot;rounded&quot;:0};strokeColor=#457B9D;fontColor=#1D3557;fillColor=#A8DADC;" vertex="1" parent="yQJW8gQfMzze2Z9aXrhy-3">
          <mxGeometry x="230" y="830" width="10" height="40" as="geometry" />
        </mxCell>
        <mxCell id="IdrIjM82akzUMScYfLIz-77" value="selectItem()" style="html=1;verticalAlign=bottom;endArrow=block;curved=0;rounded=0;entryX=0;entryY=0;entryDx=0;entryDy=5;strokeColor=#457B9D;fontColor=#1D3557;fillColor=#A8DADC;" edge="1" target="IdrIjM82akzUMScYfLIz-76" parent="yQJW8gQfMzze2Z9aXrhy-3" source="yQJW8gQfMzze2Z9aXrhy-4">
          <mxGeometry relative="1" as="geometry">
            <mxPoint x="120" y="795" as="sourcePoint" />
          </mxGeometry>
        </mxCell>
        <mxCell id="IdrIjM82akzUMScYfLIz-78" value="displayItem()" style="html=1;verticalAlign=bottom;endArrow=open;dashed=1;endSize=8;curved=0;rounded=0;exitX=0;exitY=1;exitDx=0;exitDy=-5;strokeColor=#457B9D;fontColor=#1D3557;fillColor=#A8DADC;" edge="1" source="IdrIjM82akzUMScYfLIz-76" parent="yQJW8gQfMzze2Z9aXrhy-3" target="yQJW8gQfMzze2Z9aXrhy-4">
          <mxGeometry x="0.0084" relative="1" as="geometry">
            <mxPoint x="120" y="865" as="targetPoint" />
            <mxPoint as="offset" />
          </mxGeometry>
        </mxCell>
        <mxCell id="IdrIjM82akzUMScYfLIz-79" value="opt" style="shape=umlFrame;whiteSpace=wrap;html=1;pointerEvents=0;strokeColor=#457B9D;fontColor=#1D3557;fillColor=#A8DADC;" vertex="1" parent="yQJW8gQfMzze2Z9aXrhy-3">
          <mxGeometry x="45" y="1224" width="755" height="306" as="geometry" />
        </mxCell>
        <mxCell id="IdrIjM82akzUMScYfLIz-81" value="" style="html=1;points=[[0,0,0,0,5],[0,1,0,0,-5],[1,0,0,0,5],[1,1,0,0,-5]];perimeter=orthogonalPerimeter;outlineConnect=0;targetShapes=umlLifeline;portConstraint=eastwest;newEdgeStyle={&quot;curved&quot;:0,&quot;rounded&quot;:0};strokeColor=#457B9D;fontColor=#1D3557;fillColor=#A8DADC;" vertex="1" parent="yQJW8gQfMzze2Z9aXrhy-3">
          <mxGeometry x="420" y="1044" width="10" height="40" as="geometry" />
        </mxCell>
        <mxCell id="IdrIjM82akzUMScYfLIz-82" value="deleteItem()" style="html=1;verticalAlign=bottom;endArrow=block;curved=0;rounded=0;entryX=0;entryY=0;entryDx=0;entryDy=5;strokeColor=#457B9D;fontColor=#1D3557;fillColor=#A8DADC;" edge="1" parent="yQJW8gQfMzze2Z9aXrhy-3" target="IdrIjM82akzUMScYfLIz-81" source="IdrIjM82akzUMScYfLIz-12">
          <mxGeometry relative="1" as="geometry">
            <mxPoint x="241" y="1065" as="sourcePoint" />
          </mxGeometry>
        </mxCell>
        <mxCell id="IdrIjM82akzUMScYfLIz-83" value="return" style="html=1;verticalAlign=bottom;endArrow=open;dashed=1;endSize=8;curved=0;rounded=0;exitX=0;exitY=1;exitDx=0;exitDy=-5;strokeColor=#457B9D;fontColor=#1D3557;fillColor=#A8DADC;" edge="1" parent="yQJW8gQfMzze2Z9aXrhy-3" source="IdrIjM82akzUMScYfLIz-81" target="IdrIjM82akzUMScYfLIz-12">
          <mxGeometry relative="1" as="geometry">
            <mxPoint x="235" y="1095" as="targetPoint" />
          </mxGeometry>
        </mxCell>
        <mxCell id="IdrIjM82akzUMScYfLIz-84" value="cartID != NULL &amp;amp;&amp;amp; &lt;br&gt;confirmOrder == true" style="text;html=1;align=center;verticalAlign=middle;resizable=0;points=[];autosize=1;fillColor=none;" vertex="1" parent="yQJW8gQfMzze2Z9aXrhy-3">
          <mxGeometry x="100" y="1230" width="130" height="40" as="geometry" />
        </mxCell>
        <mxCell id="IdrIjM82akzUMScYfLIz-85" value="opt" style="shape=umlFrame;whiteSpace=wrap;html=1;pointerEvents=0;strokeColor=#457B9D;fontColor=#1D3557;fillColor=#A8DADC;" vertex="1" parent="yQJW8gQfMzze2Z9aXrhy-3">
          <mxGeometry x="60" y="1280" width="730" height="220" as="geometry" />
        </mxCell>
        <mxCell id="IdrIjM82akzUMScYfLIz-87" value="newOrder()" style="html=1;verticalAlign=bottom;endArrow=block;curved=0;rounded=0;entryX=0;entryY=0;entryDx=0;entryDy=5;strokeColor=#457B9D;fontColor=#1D3557;fillColor=#A8DADC;" edge="1" target="IdrIjM82akzUMScYfLIz-86" parent="yQJW8gQfMzze2Z9aXrhy-3" source="IdrIjM82akzUMScYfLIz-12">
          <mxGeometry relative="1" as="geometry">
            <mxPoint x="350" y="1325" as="sourcePoint" />
          </mxGeometry>
        </mxCell>
        <mxCell id="IdrIjM82akzUMScYfLIz-88" value="" style="html=1;verticalAlign=bottom;endArrow=open;dashed=1;endSize=8;curved=0;rounded=0;exitX=0;exitY=1;exitDx=0;exitDy=-5;strokeColor=#457B9D;fontColor=#1D3557;fillColor=#A8DADC;" edge="1" source="IdrIjM82akzUMScYfLIz-86" parent="yQJW8gQfMzze2Z9aXrhy-3" target="IdrIjM82akzUMScYfLIz-12">
          <mxGeometry relative="1" as="geometry">
            <mxPoint x="350" y="1395" as="targetPoint" />
          </mxGeometry>
        </mxCell>
        <mxCell id="IdrIjM82akzUMScYfLIz-90" value="confirmOrder(orderID, custName, orderList, totalPrice, postalAddress, orderDate)" style="html=1;verticalAlign=bottom;endArrow=block;curved=0;rounded=0;entryX=0;entryY=0;entryDx=0;entryDy=5;strokeColor=#457B9D;fontColor=#1D3557;fillColor=#A8DADC;" edge="1" target="IdrIjM82akzUMScYfLIz-89" parent="yQJW8gQfMzze2Z9aXrhy-3" source="IdrIjM82akzUMScYfLIz-12">
          <mxGeometry relative="1" as="geometry">
            <mxPoint x="700" y="1389" as="sourcePoint" />
          </mxGeometry>
        </mxCell>
        <mxCell id="IdrIjM82akzUMScYfLIz-92" value="return" style="text;html=1;align=center;verticalAlign=middle;resizable=0;points=[];autosize=1;strokeColor=none;fillColor=none;fontColor=#1D3557;" vertex="1" parent="yQJW8gQfMzze2Z9aXrhy-3">
          <mxGeometry x="305" y="1330" width="50" height="30" as="geometry" />
        </mxCell>
        <mxCell id="IdrIjM82akzUMScYfLIz-91" value="return" style="html=1;verticalAlign=bottom;endArrow=open;dashed=1;endSize=8;curved=0;rounded=0;exitX=0;exitY=1;exitDx=0;exitDy=-5;strokeColor=#457B9D;fontColor=#1D3557;fillColor=#A8DADC;" edge="1" source="IdrIjM82akzUMScYfLIz-89" parent="yQJW8gQfMzze2Z9aXrhy-3" target="IdrIjM82akzUMScYfLIz-12">
          <mxGeometry relative="1" as="geometry">
            <mxPoint x="700" y="1459" as="targetPoint" />
          </mxGeometry>
        </mxCell>
        <mxCell id="IdrIjM82akzUMScYfLIz-97" value="processPmt(PaymentID, pmtName, ccNumber, expDate, cardholderName, securityCode, postalAddress)" style="html=1;verticalAlign=bottom;endArrow=block;curved=0;rounded=0;entryX=0;entryY=0;entryDx=0;entryDy=5;strokeColor=#457B9D;fontColor=#1D3557;fillColor=#A8DADC;" edge="1" target="IdrIjM82akzUMScYfLIz-96" parent="yQJW8gQfMzze2Z9aXrhy-3" source="yQJW8gQfMzze2Z9aXrhy-4">
          <mxGeometry x="0.5437" y="5" relative="1" as="geometry">
            <mxPoint x="350" y="1395" as="sourcePoint" />
            <mxPoint as="offset" />
          </mxGeometry>
        </mxCell>
        <mxCell id="IdrIjM82akzUMScYfLIz-98" value="confirmPmt()" style="html=1;verticalAlign=bottom;endArrow=open;dashed=1;endSize=8;curved=0;rounded=0;exitX=0;exitY=1;exitDx=0;exitDy=-5;strokeColor=#457B9D;fontColor=#1D3557;fillColor=#A8DADC;" edge="1" source="IdrIjM82akzUMScYfLIz-96" parent="yQJW8gQfMzze2Z9aXrhy-3" target="IdrIjM82akzUMScYfLIz-12">
          <mxGeometry relative="1" as="geometry">
            <mxPoint x="350" y="1465" as="targetPoint" />
          </mxGeometry>
        </mxCell>
        <mxCell id="IdrIjM82akzUMScYfLIz-89" value="" style="html=1;points=[[0,0,0,0,5],[0,1,0,0,-5],[1,0,0,0,5],[1,1,0,0,-5]];perimeter=orthogonalPerimeter;outlineConnect=0;targetShapes=umlLifeline;portConstraint=eastwest;newEdgeStyle={&quot;curved&quot;:0,&quot;rounded&quot;:0};strokeColor=#457B9D;fontColor=#1D3557;fillColor=#A8DADC;" vertex="1" parent="yQJW8gQfMzze2Z9aXrhy-3">
          <mxGeometry x="770" y="1440" width="10" height="46" as="geometry" />
        </mxCell>
        <mxCell id="IdrIjM82akzUMScYfLIz-99" value="opt" style="shape=umlFrame;whiteSpace=wrap;html=1;pointerEvents=0;strokeColor=#457B9D;fontColor=#1D3557;fillColor=#A8DADC;" vertex="1" parent="yQJW8gQfMzze2Z9aXrhy-3">
          <mxGeometry x="200" y="1540" width="600" height="170" as="geometry" />
        </mxCell>
        <mxCell id="IdrIjM82akzUMScYfLIz-101" value="deleteOrder()" style="html=1;verticalAlign=bottom;endArrow=block;curved=0;rounded=0;entryX=0;entryY=0;entryDx=0;entryDy=5;strokeColor=#457B9D;fontColor=#1D3557;fillColor=#A8DADC;" edge="1" target="IdrIjM82akzUMScYfLIz-100" parent="yQJW8gQfMzze2Z9aXrhy-3" source="IdrIjM82akzUMScYfLIz-12">
          <mxGeometry relative="1" as="geometry">
            <mxPoint x="290" y="1615" as="sourcePoint" />
          </mxGeometry>
        </mxCell>
        <mxCell id="IdrIjM82akzUMScYfLIz-102" value="notify" style="html=1;verticalAlign=bottom;endArrow=open;dashed=1;endSize=8;curved=0;rounded=0;exitX=0;exitY=1;exitDx=0;exitDy=-5;strokeColor=#457B9D;fontColor=#1D3557;fillColor=#A8DADC;" edge="1" source="IdrIjM82akzUMScYfLIz-100" parent="yQJW8gQfMzze2Z9aXrhy-3" target="IdrIjM82akzUMScYfLIz-12">
          <mxGeometry relative="1" as="geometry">
            <mxPoint x="290" y="1685" as="targetPoint" />
          </mxGeometry>
        </mxCell>
        <mxCell id="IdrIjM82akzUMScYfLIz-103" value="cancelOrder == true" style="text;html=1;align=center;verticalAlign=middle;resizable=0;points=[];autosize=1;strokeColor=none;fillColor=none;fontColor=#1D3557;" vertex="1" parent="yQJW8gQfMzze2Z9aXrhy-3">
          <mxGeometry x="255" y="1540" width="130" height="30" as="geometry" />
        </mxCell>
        <mxCell id="IdrIjM82akzUMScYfLIz-100" value="" style="html=1;points=[[0,0,0,0,5],[0,1,0,0,-5],[1,0,0,0,5],[1,1,0,0,-5]];perimeter=orthogonalPerimeter;outlineConnect=0;targetShapes=umlLifeline;portConstraint=eastwest;newEdgeStyle={&quot;curved&quot;:0,&quot;rounded&quot;:0};strokeColor=#457B9D;fontColor=#1D3557;fillColor=#A8DADC;" vertex="1" parent="yQJW8gQfMzze2Z9aXrhy-3">
          <mxGeometry x="780" y="1580" width="10" height="30" as="geometry" />
        </mxCell>
        <mxCell id="IdrIjM82akzUMScYfLIz-107" value="" style="html=1;points=[[0,0,0,0,5],[0,1,0,0,-5],[1,0,0,0,5],[1,1,0,0,-5]];perimeter=orthogonalPerimeter;outlineConnect=0;targetShapes=umlLifeline;portConstraint=eastwest;newEdgeStyle={&quot;curved&quot;:0,&quot;rounded&quot;:0};strokeColor=#457B9D;fontColor=#1D3557;fillColor=#A8DADC;" vertex="1" parent="yQJW8gQfMzze2Z9aXrhy-3">
          <mxGeometry x="240" y="1650" width="10" height="40" as="geometry" />
        </mxCell>
        <mxCell id="IdrIjM82akzUMScYfLIz-108" value="deleteOrder()" style="html=1;verticalAlign=bottom;endArrow=block;curved=0;rounded=0;entryX=1;entryY=0;entryDx=0;entryDy=5;strokeColor=#457B9D;fontColor=#1D3557;fillColor=#A8DADC;" edge="1" target="IdrIjM82akzUMScYfLIz-107" parent="yQJW8gQfMzze2Z9aXrhy-3" source="yQJW8gQfMzze2Z9aXrhy-8">
          <mxGeometry relative="1" as="geometry">
            <mxPoint x="320" y="1625" as="sourcePoint" />
          </mxGeometry>
        </mxCell>
        <mxCell id="IdrIjM82akzUMScYfLIz-109" value="notify" style="html=1;verticalAlign=bottom;endArrow=open;dashed=1;endSize=8;curved=0;rounded=0;exitX=1;exitY=1;exitDx=0;exitDy=-5;strokeColor=#457B9D;fontColor=#1D3557;fillColor=#A8DADC;" edge="1" source="IdrIjM82akzUMScYfLIz-107" parent="yQJW8gQfMzze2Z9aXrhy-3" target="yQJW8gQfMzze2Z9aXrhy-8">
          <mxGeometry x="-0.0002" relative="1" as="geometry">
            <mxPoint x="320" y="1695" as="targetPoint" />
            <Array as="points" />
            <mxPoint as="offset" />
          </mxGeometry>
        </mxCell>
        <mxCell id="IdrIjM82akzUMScYfLIz-110" value="" style="endArrow=none;startArrow=none;endFill=0;startFill=0;endSize=8;html=1;verticalAlign=bottom;labelBackgroundColor=none;strokeWidth=3;rounded=0;strokeColor=#457B9D;fontColor=#1D3557;fillColor=#A8DADC;entryX=1.003;entryY=0.537;entryDx=0;entryDy=0;entryPerimeter=0;dashed=1;" edge="1" parent="yQJW8gQfMzze2Z9aXrhy-3" target="IdrIjM82akzUMScYfLIz-99">
          <mxGeometry width="160" relative="1" as="geometry">
            <mxPoint x="200" y="1630" as="sourcePoint" />
            <mxPoint x="360" y="1630" as="targetPoint" />
          </mxGeometry>
        </mxCell>
        <mxCell id="IdrIjM82akzUMScYfLIz-111" value="" style="html=1;verticalAlign=bottom;endArrow=open;dashed=1;endSize=8;curved=0;rounded=0;strokeColor=#457B9D;fontColor=#1D3557;fillColor=#A8DADC;" edge="1" parent="yQJW8gQfMzze2Z9aXrhy-3">
          <mxGeometry relative="1" as="geometry">
            <mxPoint x="240" y="1730" as="sourcePoint" />
            <mxPoint x="69.82352941176464" y="1730" as="targetPoint" />
          </mxGeometry>
        </mxCell>
        <mxCell id="IdrIjM82akzUMScYfLIz-15" value="loop" style="shape=umlFrame;whiteSpace=wrap;html=1;pointerEvents=0;strokeColor=#457B9D;fontColor=#1D3557;fillColor=#A8DADC;" vertex="1" parent="1">
          <mxGeometry x="221" y="258" width="419" height="282" as="geometry" />
        </mxCell>
        <mxCell id="IdrIjM82akzUMScYfLIz-16" value="Valid == false" style="text;html=1;align=center;verticalAlign=middle;resizable=0;points=[];autosize=1;strokeColor=none;fillColor=none;fontColor=#1D3557;" vertex="1" parent="1">
          <mxGeometry x="270" y="258" width="100" height="30" as="geometry" />
        </mxCell>
        <mxCell id="IdrIjM82akzUMScYfLIz-17" value="break" style="shape=umlFrame;whiteSpace=wrap;html=1;pointerEvents=0;strokeColor=#457B9D;fontColor=#1D3557;fillColor=#A8DADC;" vertex="1" parent="1">
          <mxGeometry x="231" y="297" width="240" height="93" as="geometry" />
        </mxCell>
        <mxCell id="IdrIjM82akzUMScYfLIz-18" value="UserExists == false" style="text;html=1;align=center;verticalAlign=middle;resizable=0;points=[];autosize=1;strokeColor=none;fillColor=none;fontColor=#1D3557;" vertex="1" parent="1">
          <mxGeometry x="280" y="297" width="130" height="30" as="geometry" />
        </mxCell>
        <mxCell id="IdrIjM82akzUMScYfLIz-30" value="" style="html=1;points=[[0,0,0,0,5],[0,1,0,0,-5],[1,0,0,0,5],[1,1,0,0,-5]];perimeter=orthogonalPerimeter;outlineConnect=0;targetShapes=umlLifeline;portConstraint=eastwest;newEdgeStyle={&quot;curved&quot;:0,&quot;rounded&quot;:0};strokeColor=#457B9D;fontColor=#1D3557;fillColor=#A8DADC;" vertex="1" parent="1">
          <mxGeometry x="249" y="494" width="13" height="30" as="geometry" />
        </mxCell>
        <mxCell id="IdrIjM82akzUMScYfLIz-31" value="displayLogin()" style="html=1;align=left;spacingLeft=2;endArrow=block;rounded=0;edgeStyle=orthogonalEdgeStyle;curved=0;rounded=0;strokeColor=#457B9D;fontColor=#1D3557;fillColor=#A8DADC;exitX=1;exitY=0;exitDx=0;exitDy=5;exitPerimeter=0;" edge="1" parent="1" source="IdrIjM82akzUMScYfLIz-30" target="IdrIjM82akzUMScYfLIz-30">
          <mxGeometry x="-0.0633" y="6" relative="1" as="geometry">
            <mxPoint x="254" y="474" as="sourcePoint" />
            <Array as="points">
              <mxPoint x="262" y="494" />
              <mxPoint x="284" y="494" />
              <mxPoint x="284" y="524" />
            </Array>
            <mxPoint as="offset" />
          </mxGeometry>
        </mxCell>
      </root>
    </mxGraphModel>
  </diagram>
</mxfile>
